<svg width="552" height="618" viewBox="0 0 552 618" fill="none" xmlns="http://www.w3.org/2000/svg">
<path d="M423.073 2.25876C419.74 -0.752106 414.654 -0.752225 411.322 2.25876L410.993 2.56931L410.683 2.89743C407.572 6.34087 407.676 11.6568 410.993 14.9756L418.795 22.7773L410.993 30.58C410.168 31.4059 409.543 32.3565 409.116 33.3701C408.235 33.7423 407.402 34.2645 406.658 34.9375L406.33 35.248L398.532 43.0488L390.731 35.248L390.403 34.9375C387.07 31.9263 381.984 31.9264 378.652 34.9375L378.324 35.248L378.013 35.5761C374.902 39.0197 375.005 44.3355 378.324 47.6543L386.125 55.456L378.324 63.2588C376.012 65.5712 375.262 68.8523 376.072 71.7949C375.262 74.7377 376.011 78.0194 378.324 80.332L386.125 88.1338L378.324 95.9365C376.012 98.2488 375.263 101.53 376.072 104.473C375.262 107.416 376.011 110.698 378.324 113.011L386.125 120.812L378.324 128.615C376.012 130.927 375.263 134.208 376.072 137.15C375.262 140.093 376.011 143.376 378.324 145.688L386.125 153.49L378.324 161.293C376.011 163.606 375.262 166.888 376.073 169.831C375.263 172.774 376.011 176.055 378.324 178.368L386.125 186.17L378.324 193.973C376.012 196.285 375.263 199.566 376.072 202.509C375.262 205.452 376.011 208.733 378.324 211.046L386.125 218.848L378.324 226.65C376.012 228.963 375.263 232.244 376.072 235.186C375.262 238.129 376.011 241.412 378.324 243.725L386.125 251.526L378.324 259.329C377.498 260.155 376.873 261.105 376.446 262.119C375.565 262.491 374.732 263.013 373.988 263.686L373.66 263.996L349.525 288.135L341.725 280.335L341.397 280.024C339.107 277.956 335.99 277.308 333.182 278.082C330.374 277.307 327.255 277.955 324.965 280.024L324.638 280.335L316.839 288.136L309.038 280.335L308.71 280.024C305.378 277.013 300.292 277.013 296.959 280.024L296.631 280.335L296.321 280.663C293.21 284.107 293.313 289.422 296.631 292.741L304.433 300.543L296.631 308.346C295.805 309.172 295.181 310.123 294.753 311.137C293.873 311.509 293.04 312.03 292.295 312.703L291.968 313.014L284.169 320.814L276.368 313.014L276.04 312.703C272.708 309.692 267.622 309.692 264.289 312.703L263.961 313.014L263.651 313.342C260.54 316.785 260.643 322.101 263.961 325.42L271.763 333.222L263.961 341.024C263.136 341.85 262.511 342.801 262.083 343.814C261.203 344.187 260.37 344.708 259.625 345.381L259.298 345.691L251.499 353.492L243.699 345.691L243.37 345.381C240.038 342.37 234.952 342.37 231.619 345.381L231.291 345.691L230.981 346.02C227.87 349.463 227.973 354.779 231.291 358.098L239.093 365.899L231.291 373.702C230.466 374.528 229.842 375.478 229.414 376.491C228.533 376.863 227.7 377.385 226.955 378.059L226.628 378.369L218.829 386.17L211.029 378.369L210.7 378.059C207.368 375.047 202.282 375.048 198.949 378.059L198.621 378.369L198.311 378.697C195.2 382.141 195.303 387.457 198.621 390.775L206.423 398.577L198.621 406.38C197.798 407.204 197.174 408.152 196.746 409.163C195.859 409.536 195.02 410.06 194.27 410.737L193.943 411.048L186.144 418.849L178.343 411.048L178.015 410.737C174.682 407.726 169.596 407.726 166.264 410.737L165.936 411.048L165.625 411.376C162.515 414.819 162.618 420.135 165.936 423.454L173.738 431.256L165.936 439.059C165.11 439.884 164.485 440.834 164.058 441.848C163.177 442.22 162.344 442.742 161.599 443.415L161.272 443.726L153.473 451.526L145.672 443.726L145.344 443.415C142.012 440.404 136.926 440.404 133.593 443.415L133.265 443.726L132.954 444.054C129.844 447.497 129.947 452.813 133.265 456.132L141.067 463.934L133.265 471.736C132.439 472.562 131.815 473.513 131.387 474.526C130.506 474.899 129.674 475.42 128.929 476.093L128.602 476.403L120.803 484.204L113.002 476.403L112.674 476.093C109.342 473.082 104.256 473.082 100.923 476.093L100.595 476.403L100.284 476.731C97.1737 480.175 97.2768 485.491 100.595 488.81L108.397 496.611L100.595 504.414C99.7693 505.24 99.1447 506.19 98.7171 507.204C97.8362 507.576 97.0038 508.098 96.2591 508.771L95.9319 509.082L88.1331 516.883L80.3323 509.082L80.0042 508.771C76.6717 505.76 71.5857 505.76 68.2532 508.771L67.9251 509.082L67.6145 509.41C64.5038 512.854 64.6069 518.17 67.9251 521.488L75.7268 529.29L67.9251 537.093C67.1017 537.916 66.4785 538.864 66.0511 539.874C65.1628 540.247 64.323 540.771 63.5725 541.449L63.2454 541.76L55.4466 549.561L47.6458 541.76L47.3177 541.449C43.9852 538.438 38.8992 538.438 35.5667 541.449L35.2386 541.76L34.928 542.088C31.8173 545.531 31.9204 550.847 35.2386 554.166L43.0403 561.968L35.2386 569.77C34.4129 570.596 33.7882 571.547 33.3606 572.561C32.48 572.933 31.6472 573.454 30.9026 574.127L30.5755 574.437L22.7766 582.238L14.9759 574.437L14.6477 574.127C11.3152 571.116 6.22924 571.116 2.89676 574.127L2.56864 574.437L2.25809 574.766C-0.852661 578.209 -0.749423 583.525 2.56864 586.844L10.3704 594.645L2.56864 602.448C-0.856238 605.874 -0.856337 611.428 2.56864 614.853C5.99447 618.28 11.55 618.28 14.9759 614.853L22.7757 607.053L30.5755 614.853C32.8874 617.166 36.1682 617.915 39.1106 617.106C42.0532 617.915 45.334 617.166 47.6458 614.853L55.4456 607.053L63.2454 614.853C66.6712 618.28 72.2258 618.28 75.6516 614.853C79.0769 611.428 79.0769 605.874 75.6516 602.448L67.8509 594.645L75.6516 586.844C76.4757 586.02 77.1001 585.072 77.5276 584.061C78.5468 583.633 79.5025 583.006 80.3323 582.176L88.1321 574.375L95.9319 582.176C96.7556 582.999 97.7035 583.622 98.7141 584.05C99.1417 585.065 99.768 586.017 100.595 586.844L108.397 594.645L100.595 602.448C97.1701 605.874 97.17 611.428 100.595 614.853C104.021 618.28 109.576 618.28 113.002 614.853L120.802 607.053L128.602 614.853C130.914 617.166 134.195 617.915 137.137 617.106C140.08 617.915 143.36 617.166 145.672 614.853L153.472 607.053L161.272 614.853C164.698 618.28 170.252 618.28 173.678 614.853C177.103 611.428 177.103 605.874 173.678 602.448L165.877 594.645L173.678 586.844C174.504 586.017 175.13 585.066 175.558 584.052C176.57 583.624 177.519 583 178.343 582.176L186.143 574.375L193.943 582.176C197.368 585.602 202.923 585.602 206.349 582.176C209.774 578.75 209.774 573.196 206.349 569.77L198.548 561.968L206.349 554.166C207.173 553.342 207.797 552.393 208.225 551.382C209.244 550.954 210.199 550.328 211.029 549.498L218.828 541.697L226.628 549.498C230.054 552.924 235.609 552.924 239.034 549.498C242.46 546.072 242.459 540.519 239.034 537.093L231.234 529.29L239.034 521.488C239.861 520.662 240.486 519.711 240.913 518.696C241.925 518.269 242.874 517.644 243.699 516.819L251.498 509.019L259.298 516.819C262.724 520.245 268.279 520.245 271.704 516.819C275.13 513.394 275.13 507.84 271.704 504.414L263.904 496.611L271.704 488.81C272.531 487.983 273.156 487.032 273.583 486.018C274.595 485.59 275.544 484.966 276.368 484.142L284.168 476.341L291.968 484.142C295.394 487.568 300.948 487.568 304.374 484.142C307.8 480.716 307.8 475.162 304.374 471.736L296.574 463.934L304.374 456.132C305.201 455.305 305.826 454.354 306.253 453.339C307.265 452.911 308.214 452.288 309.038 451.464L316.838 443.663L324.638 451.464C325.467 452.293 326.422 452.919 327.441 453.347C327.868 454.359 328.493 455.307 329.318 456.132L337.119 463.934L329.318 471.736C327.006 474.048 326.258 477.329 327.067 480.271C326.257 483.214 327.005 486.497 329.318 488.81L337.119 496.611L329.318 504.414C327.006 506.726 326.258 510.008 327.067 512.95C326.257 515.893 327.005 519.176 329.318 521.488L337.119 529.29L329.318 537.093C327.006 539.405 326.258 542.686 327.067 545.628C326.257 548.571 327.005 551.853 329.318 554.166L337.119 561.968L329.318 569.77C328.494 570.594 327.871 571.541 327.444 572.552C326.555 572.924 325.716 573.449 324.965 574.127L324.638 574.437L316.838 582.238L309.038 574.437L308.71 574.127C305.378 571.116 300.292 571.116 296.959 574.127L296.631 574.437L296.321 574.766C293.21 578.209 293.313 583.525 296.631 586.844L304.433 594.645L296.631 602.448C293.206 605.874 293.206 611.428 296.631 614.853C300.057 618.28 305.613 618.28 309.038 614.853L316.838 607.053L324.638 614.853C328.064 618.28 333.618 618.28 337.044 614.853C340.47 611.428 340.469 605.874 337.044 602.448L329.243 594.645L337.044 586.844C337.868 586.02 338.493 585.072 338.92 584.061C339.939 583.633 340.895 583.006 341.725 582.176L349.525 574.375L357.324 582.176C358.148 583 359.097 583.622 360.108 584.05C360.535 585.065 361.162 586.017 361.989 586.844L369.79 594.645L361.989 602.448C358.564 605.874 358.563 611.428 361.989 614.853C365.414 618.28 370.97 618.28 374.396 614.853L382.196 607.053L389.995 614.853C393.421 618.28 398.976 618.28 402.402 614.853C405.827 611.428 405.827 605.874 402.402 602.448L394.601 594.645L402.402 586.844C403.228 586.017 403.854 585.066 404.282 584.051C405.293 583.623 406.242 583 407.066 582.176L414.866 574.375L422.665 582.176C423.489 583 424.437 583.623 425.449 584.051C425.876 585.066 426.503 586.017 427.329 586.844L435.131 594.645L427.329 602.448C423.904 605.874 423.904 611.428 427.329 614.853C430.755 618.28 436.311 618.28 439.737 614.853L447.536 607.053L455.336 614.853C458.762 618.28 464.317 618.28 467.742 614.853C471.168 611.428 471.168 605.874 467.742 602.448L459.942 594.645L467.742 586.844C471.168 583.418 471.168 577.863 467.742 574.437L467.415 574.127C464.083 571.116 458.996 571.116 455.663 574.127L455.336 574.437L447.536 582.238L439.737 574.437L439.408 574.127C438.664 573.454 437.831 572.932 436.95 572.56C436.523 571.546 435.897 570.596 435.072 569.77L427.271 561.968L435.072 554.166C437.384 551.853 438.133 548.571 437.324 545.628C438.132 542.686 437.383 539.405 435.072 537.093L427.271 529.29L435.072 521.488C437.384 519.176 438.133 515.893 437.324 512.95C438.133 510.008 437.383 506.726 435.072 504.414L427.271 496.611L435.072 488.81C437.384 486.497 438.133 483.215 437.324 480.272C438.133 477.33 437.383 474.049 435.072 471.736L427.271 463.934L435.072 456.132C435.898 455.305 436.523 454.354 436.95 453.34C437.963 452.912 438.912 452.289 439.737 451.464L447.537 443.662L455.336 451.464C458.762 454.89 464.317 454.89 467.742 451.464C471.168 448.038 471.167 442.484 467.742 439.059L459.942 431.256L467.742 423.454C468.567 422.63 469.191 421.681 469.618 420.67C470.637 420.242 471.593 419.615 472.422 418.785L480.223 410.983L488.022 418.785C491.448 422.211 497.002 422.211 500.428 418.785C503.853 415.359 503.853 409.806 500.428 406.38L492.628 398.577L500.428 390.775C500.44 390.763 500.452 390.75 500.464 390.737L512.893 378.307L520.692 386.107C524.117 389.534 529.672 389.533 533.098 386.107C536.523 382.682 536.523 377.128 533.098 373.702L525.296 365.898L549.433 341.759C551.745 339.446 552.495 336.164 551.686 333.221C552.495 330.278 551.745 326.997 549.433 324.685L541.632 316.882L549.433 309.08C551.745 306.768 552.495 303.486 551.686 300.543C552.495 297.6 551.745 294.319 549.433 292.007L541.632 284.204L549.433 276.402C552.858 272.976 552.858 267.422 549.433 263.996L549.106 263.686C545.773 260.674 540.686 260.674 537.354 263.686L537.027 263.996L529.227 271.797L521.427 263.996L521.099 263.686C518.811 261.619 515.698 260.97 512.892 261.741C510.086 260.97 506.972 261.618 504.684 263.686L504.357 263.996L496.558 271.796L492.628 267.864L500.428 260.063C503.853 256.638 503.853 251.083 500.428 247.657L500.101 247.347C496.768 244.335 491.681 244.335 488.349 247.347L488.022 247.657L480.223 255.457L476.292 251.526L484.093 243.725C486.405 241.412 487.155 238.13 486.345 235.186C487.154 232.244 486.405 228.963 484.093 226.65L476.292 218.848L484.093 211.046C486.405 208.733 487.154 205.452 486.345 202.509C487.154 199.566 486.405 196.285 484.093 193.973L476.292 186.17L484.093 178.368C486.405 176.055 487.154 172.773 486.344 169.83C487.154 166.887 486.405 163.606 484.093 161.293L476.292 153.49L484.093 145.688C484.92 144.862 485.544 143.91 485.972 142.895C486.984 142.468 487.933 141.845 488.757 141.02L496.557 133.22L504.357 141.02C507.783 144.446 513.337 144.446 516.763 141.02C520.188 137.595 520.188 132.041 516.763 128.615L508.962 120.812L516.763 113.011C517.589 112.184 518.214 111.232 518.642 110.218C519.654 109.79 520.603 109.166 521.427 108.342L529.227 100.541L537.027 108.342C540.452 111.768 546.007 111.768 549.433 108.342C552.858 104.916 552.858 99.3623 549.433 95.9365L541.632 88.1338L549.433 80.332C552.858 76.9062 552.858 71.3516 549.433 67.9258L549.106 67.6152C545.773 64.6039 540.686 64.6037 537.354 67.6152L537.027 67.9258L529.227 75.7265L521.427 67.9258L521.099 67.6152C520.354 66.9425 519.522 66.4199 518.642 66.0478C518.214 65.0344 517.589 64.0846 516.763 63.2588L508.962 55.456L516.763 47.6543C520.188 44.2285 520.188 38.6738 516.763 35.248L516.436 34.9375C513.103 31.9261 508.016 31.9261 504.684 34.9375L504.357 35.248L496.557 43.0488L488.757 35.248L488.429 34.9375C487.685 34.2649 486.852 33.7432 485.972 33.3711C485.544 32.3571 484.919 31.4062 484.093 30.58L476.292 22.7773L484.093 14.9756C487.518 11.5497 487.518 5.99499 484.093 2.56931L483.766 2.25876C480.433 -0.752569 475.347 -0.752379 472.014 2.25876L471.687 2.56931L463.887 10.3701L456.087 2.56931L455.759 2.25876C453.47 0.189985 450.352 -0.457472 447.544 0.316376C444.736 -0.458151 441.617 0.189466 439.327 2.25876L439 2.56931L431.2 10.3701L423.401 2.56931L423.073 2.25876ZM141.067 594.645L137.137 598.575L133.208 594.645L137.137 590.715L141.067 594.645ZM43.0403 594.645L39.1106 598.575L35.1819 594.645L39.1106 590.715L43.0403 594.645ZM389.995 451.464C390.819 452.288 391.767 452.91 392.778 453.338C393.205 454.353 393.832 455.305 394.658 456.132L402.46 463.934L394.658 471.736C392.346 474.049 391.598 477.331 392.408 480.273C391.598 483.216 392.346 486.497 394.658 488.81L402.46 496.611L394.658 504.414C392.346 506.727 391.598 510.008 392.408 512.951C391.598 515.894 392.346 519.176 394.658 521.488L402.46 529.29L394.658 537.093C392.347 539.405 391.598 542.686 392.408 545.629C391.598 548.572 392.346 551.853 394.658 554.166L402.46 561.968L394.658 569.77C393.833 570.596 393.208 571.546 392.781 572.56C391.9 572.932 391.067 573.454 390.323 574.127L389.995 574.437L382.196 582.238L374.396 574.437L374.068 574.127C373.323 573.454 372.49 572.932 371.61 572.56C371.182 571.546 370.556 570.596 369.731 569.77L361.93 561.968L369.731 554.166C372.043 551.853 372.793 548.571 371.984 545.628C372.793 542.686 372.043 539.405 369.731 537.093L361.93 529.29L369.731 521.488C372.043 519.176 372.793 515.893 371.984 512.95C372.793 510.008 372.043 506.726 369.731 504.414L361.93 496.611L369.731 488.81C372.043 486.497 372.793 483.215 371.984 480.272C372.793 477.33 372.043 474.049 369.731 471.736L361.93 463.934L369.731 456.132C370.557 455.305 371.183 454.354 371.611 453.34C372.622 452.912 373.571 452.288 374.396 451.464L382.197 443.662L389.995 451.464ZM128.602 549.498C129.425 550.322 130.374 550.944 131.384 551.372C131.812 552.387 132.438 553.339 133.265 554.166L141.067 561.968L133.265 569.77C132.439 570.596 131.815 571.547 131.387 572.561C130.506 572.933 129.674 573.454 128.929 574.127L128.602 574.437L120.803 582.238L113.002 574.437L112.674 574.127C111.93 573.454 111.097 572.933 110.217 572.561C109.789 571.547 109.164 570.596 108.338 569.77L100.537 561.968L108.338 554.166C109.165 553.339 109.789 552.388 110.217 551.373C111.229 550.945 112.178 550.322 113.002 549.498L120.802 541.697L128.602 549.498ZM157.404 578.307L153.473 582.237L149.541 578.307L153.472 574.375L157.404 578.307ZM59.3772 578.307L55.4466 582.237L51.5149 578.307L55.4456 574.375L59.3772 578.307ZM75.7268 561.968L71.7893 565.906L67.8518 561.967L71.7893 558.029L75.7268 561.968ZM173.738 561.968L169.808 565.898L165.878 561.967L169.808 558.037L173.738 561.968ZM161.272 516.819C162.096 517.643 163.044 518.267 164.055 518.694C164.483 519.709 165.109 520.661 165.936 521.488L173.738 529.29L165.936 537.093C165.11 537.918 164.485 538.868 164.058 539.882C163.177 540.254 162.344 540.776 161.599 541.449L161.272 541.76L153.473 549.561L145.672 541.76L145.344 541.449C144.599 540.776 143.767 540.254 142.887 539.882C142.459 538.868 141.834 537.919 141.008 537.093L133.207 529.29L141.008 521.488C141.835 520.662 142.459 519.71 142.887 518.695C143.899 518.268 144.848 517.644 145.672 516.819L153.472 509.019L161.272 516.819ZM418.797 545.629L414.866 549.56L410.935 545.629L414.866 541.697L418.797 545.629ZM353.456 545.629L349.526 549.56L345.594 545.629L349.525 541.697L353.456 545.629ZM190.074 545.629L186.144 549.56L182.212 545.629L186.143 541.697L190.074 545.629ZM92.0638 545.629L88.1331 549.56L84.2014 545.629L88.1321 541.697L92.0638 545.629ZM206.423 529.29L202.486 533.228L198.549 529.289L202.486 525.352L206.423 529.29ZM108.397 529.29L104.467 533.22L100.538 529.289L104.467 525.359L108.397 529.29ZM193.943 484.142C194.771 484.97 195.726 485.597 196.743 486.024C197.171 487.036 197.797 487.985 198.621 488.81L206.423 496.611L198.621 504.414C197.798 505.238 197.174 506.186 196.746 507.197C195.859 507.57 195.02 508.094 194.27 508.771L193.943 509.082L186.144 516.883L178.343 509.082L178.015 508.771C177.27 508.099 176.438 507.576 175.557 507.204C175.129 506.19 174.504 505.24 173.678 504.414L165.877 496.611L173.678 488.81C174.504 487.983 175.129 487.033 175.557 486.019C176.569 485.591 177.518 484.966 178.343 484.142L186.143 476.341L193.943 484.142ZM418.798 512.95L414.866 516.882L410.934 512.95L414.866 509.019L418.798 512.95ZM353.457 512.95L349.526 516.882L345.593 512.95L349.525 509.019L353.457 512.95ZM222.761 512.95L218.829 516.882L214.897 512.95L218.828 509.019L222.761 512.95ZM124.735 512.95L120.803 516.882L116.87 512.95L120.802 509.019L124.735 512.95ZM239.093 496.611L235.163 500.541L231.235 496.61L235.163 492.681L239.093 496.611ZM141.067 496.611L137.137 500.541L133.208 496.61L137.137 492.681L141.067 496.611ZM226.628 451.464C227.452 452.288 228.4 452.91 229.41 453.338C229.838 454.353 230.464 455.305 231.291 456.132L239.093 463.934L231.291 471.736C230.466 472.562 229.842 473.512 229.414 474.525C228.533 474.898 227.7 475.42 226.955 476.093L226.628 476.403L218.829 484.204L211.029 476.403L210.7 476.093C209.951 475.415 209.112 474.891 208.225 474.519C207.797 473.508 207.173 472.56 206.349 471.736L198.548 463.934L206.349 456.132C207.173 455.307 207.797 454.359 208.225 453.348C209.244 452.92 210.199 452.293 211.029 451.464L218.828 443.663L226.628 451.464ZM418.797 480.272L414.866 484.203L410.935 480.272L414.866 476.341L418.797 480.272ZM353.456 480.272L349.526 484.203L345.594 480.272L349.525 476.341L353.456 480.272ZM255.43 480.272L251.499 484.203L247.568 480.272L251.498 476.341L255.43 480.272ZM157.404 480.272L153.473 484.203L149.541 480.272L153.472 476.341L157.404 480.272ZM173.738 463.934L169.808 467.864L165.878 463.933L169.808 460.003L173.738 463.934ZM271.763 463.934L267.833 467.863L263.905 463.933L267.833 460.003L271.763 463.934ZM259.298 418.785C260.122 419.609 261.07 420.232 262.08 420.66C262.508 421.675 263.134 422.627 263.961 423.454L271.763 431.256L263.961 439.059C263.136 439.885 262.511 440.835 262.083 441.849C261.203 442.221 260.37 442.742 259.625 443.415L259.298 443.726L251.499 451.526L243.699 443.726L243.37 443.415C242.626 442.742 241.794 442.22 240.913 441.848C240.486 440.834 239.86 439.884 239.034 439.059L231.234 431.256L239.034 423.454C239.861 422.628 240.486 421.676 240.913 420.662C241.925 420.234 242.874 419.61 243.699 418.785L251.498 410.984L259.298 418.785ZM418.798 447.594L414.866 451.525L410.935 447.595L414.866 443.662L418.798 447.594ZM353.457 447.594L349.526 451.525L345.594 447.595L349.526 443.662L353.457 447.594ZM288.1 447.595L284.169 451.525L280.238 447.595L284.168 443.663L288.1 447.595ZM190.074 447.595L186.144 451.525L182.212 447.595L186.143 443.663L190.074 447.595ZM337.12 431.255L333.182 435.194L329.243 431.256L333.182 427.317L337.12 431.255ZM206.423 431.256L202.486 435.193L198.549 431.255L202.486 427.317L206.423 431.256ZM435.132 431.255L431.201 435.186L427.271 431.256L431.201 427.325L435.132 431.255ZM369.791 431.255L365.861 435.186L361.93 431.256L365.861 427.325L369.791 431.255ZM402.461 431.255L398.531 435.186L394.601 431.256L398.531 427.325L402.461 431.255ZM304.433 431.256L300.503 435.186L296.574 431.255L300.503 427.325L304.433 431.256ZM451.468 414.916L447.536 418.849L443.605 414.916L447.537 410.983L451.468 414.916ZM435.131 398.576L427.329 406.38C426.504 407.206 425.879 408.156 425.451 409.17C424.57 409.542 423.737 410.064 422.992 410.737L422.665 411.048L414.866 418.849L407.066 411.048L406.738 410.737C405.993 410.065 405.161 409.543 404.281 409.171C403.853 408.157 403.228 407.206 402.402 406.38L394.601 398.577L402.402 390.775C402.414 390.763 402.425 390.75 402.438 390.737L414.866 378.308L435.131 398.576ZM386.127 414.916L382.196 418.849L378.264 414.916L382.197 410.983L386.127 414.916ZM357.324 386.107C358.148 386.931 359.097 387.554 360.108 387.981C360.535 388.997 361.162 389.948 361.989 390.775L369.79 398.577L361.989 406.38C361.163 407.206 360.538 408.156 360.111 409.17C359.23 409.542 358.396 410.064 357.652 410.737L357.324 411.048L349.525 418.849L341.725 411.048L341.397 410.737C340.646 410.059 339.807 409.535 338.919 409.162C338.492 408.151 337.868 407.204 337.044 406.38L329.243 398.577L337.044 390.775C337.868 389.952 338.492 389.004 338.919 387.993C339.939 387.565 340.895 386.938 341.725 386.107L349.525 378.307L357.324 386.107ZM291.968 386.107C292.792 386.931 293.74 387.554 294.75 387.981C295.178 388.997 295.804 389.948 296.631 390.775L304.433 398.577L296.631 406.38C295.805 407.206 295.181 408.157 294.753 409.171C293.873 409.543 293.04 410.064 292.295 410.737L291.968 411.048L284.169 418.849L276.368 411.048L276.04 410.737C275.296 410.065 274.464 409.542 273.583 409.17C273.156 408.156 272.53 407.206 271.704 406.38L263.904 398.577L271.704 390.775C272.531 389.949 273.157 388.998 273.584 387.983C274.596 387.556 275.544 386.932 276.368 386.107L284.168 378.307L291.968 386.107ZM320.771 414.916L316.839 418.848L312.907 414.916L316.838 410.984L320.771 414.916ZM222.761 414.916L218.829 418.848L214.897 414.916L218.828 410.984L222.761 414.916ZM467.818 398.576L463.879 402.515L459.942 398.577L463.879 394.639L467.818 398.576ZM239.093 398.577L235.163 402.507L231.235 398.576L235.163 394.646L239.093 398.577ZM467.815 365.895L460.009 373.701C459.184 374.526 458.561 375.475 458.133 376.487C457.248 376.86 456.411 377.383 455.663 378.059L455.336 378.369L447.536 386.17L427.269 365.899L447.544 345.622L467.815 365.895ZM484.153 382.236L480.221 386.169L476.287 382.234L480.219 378.303L484.153 382.236ZM402.46 365.901L382.196 386.169L374.396 378.369L374.068 378.059C373.323 377.386 372.49 376.863 371.61 376.491C371.182 375.478 370.556 374.528 369.731 373.702L361.93 365.899L369.731 358.098C370.558 357.27 371.184 356.318 371.612 355.303C372.621 354.875 373.566 354.252 374.389 353.43L382.189 345.629L402.46 365.901ZM320.77 382.238L316.839 386.169L312.908 382.238L316.838 378.307L320.77 382.238ZM255.43 382.238L251.499 386.169L247.568 382.238L251.498 378.307L255.43 382.238ZM337.119 365.899L333.182 369.838L329.244 365.898L333.182 361.961L337.119 365.899ZM500.488 365.9L496.559 369.83L492.624 365.895L496.554 361.966L500.488 365.9ZM304.433 365.899L300.503 369.829L296.574 365.898L300.503 361.969L304.433 365.899ZM271.763 365.899L267.833 369.829L263.905 365.898L267.833 361.969L271.763 365.899ZM435.133 333.221L414.864 353.492L394.594 333.222L414.864 312.95L435.133 333.221ZM353.456 349.561L349.525 353.492L345.594 349.56L349.526 345.628L353.456 349.561ZM288.1 349.561L284.169 353.492L280.238 349.56L284.169 345.628L288.1 349.561ZM516.824 349.559L512.892 353.491L508.959 349.559L512.891 345.626L516.824 349.559ZM320.77 349.561L316.839 353.491L312.908 349.561L316.838 345.629L320.77 349.561ZM500.487 333.219L480.22 353.488L459.955 333.221L480.223 312.951L500.487 333.219ZM337.12 333.221L333.182 337.16L329.243 333.222L333.182 329.283L337.12 333.221ZM533.159 333.221L529.229 337.152L525.296 333.22L529.227 329.288L533.159 333.221ZM304.433 333.222L300.503 337.151L296.574 333.221L300.503 329.291L304.433 333.222ZM369.783 333.222L365.857 337.148L361.931 333.221L365.857 329.294L369.783 333.222ZM467.817 300.544L447.544 320.82L427.27 300.542L447.542 280.268L467.817 300.544ZM382.197 312.949L386.124 316.879L382.189 320.814L378.261 316.886L382.197 312.949ZM353.457 316.882L349.526 320.813L345.592 316.881L349.524 312.949L353.457 316.882ZM320.771 316.882L316.839 320.813L312.907 316.882L316.838 312.95L320.771 316.882ZM516.822 316.882L512.892 320.812L508.962 316.882L512.892 312.951L516.822 316.882ZM337.119 300.542L333.181 304.48L329.244 300.542L333.182 296.604L337.119 300.542ZM500.489 300.543L496.557 304.475L492.625 300.543L496.557 296.611L500.489 300.543ZM533.158 300.542L529.228 304.474L525.296 300.543L529.228 296.61L533.158 300.542ZM369.791 300.542L365.861 304.473L361.93 300.542L365.86 296.611L369.791 300.542ZM402.46 300.541L398.53 304.472L394.602 300.543L398.533 296.61L402.46 300.541ZM484.152 284.204L480.22 288.136L476.29 284.205L480.221 280.272L484.152 284.204ZM386.125 284.204L382.196 288.135L378.265 284.204L382.196 280.273L386.125 284.204ZM516.823 284.203L512.892 288.134L508.962 284.204L512.892 280.273L516.823 284.203ZM418.796 284.203L414.866 288.134L410.937 284.203L414.866 280.272L418.796 284.203ZM467.817 267.865L463.885 271.798L459.953 267.867L463.886 263.935L467.817 267.865ZM435.132 267.865L431.201 271.796L427.27 267.864L431.2 263.934L435.132 267.865ZM402.461 267.865L398.532 271.796L394.6 267.865L398.53 263.935L402.461 267.865ZM451.482 251.526L447.544 255.465L443.607 251.525L447.544 247.588L451.482 251.526ZM418.795 251.526L414.866 255.457L410.936 251.526L414.866 247.596L418.795 251.526ZM467.82 235.186L463.888 239.118L459.955 235.186L463.887 231.255L467.82 235.186ZM435.133 235.186L431.201 239.118L427.269 235.186L431.2 231.255L435.133 235.186ZM402.463 235.186L398.532 239.118L394.599 235.186L398.531 231.255L402.463 235.186ZM451.482 218.848L447.544 222.786L443.607 218.847L447.544 214.909L451.482 218.848ZM418.795 218.848L414.866 222.777L410.937 218.847L414.866 214.917L418.795 218.848ZM402.462 202.509L398.532 206.44L394.6 202.508L398.532 198.576L402.462 202.509ZM467.819 202.509L463.888 206.439L459.956 202.509L463.887 198.577L467.819 202.509ZM435.132 202.509L431.201 206.439L427.27 202.509L431.2 198.577L435.132 202.509ZM451.482 186.17L447.544 190.108L443.607 186.169L447.544 182.231L451.482 186.17ZM418.795 186.17L414.866 190.1L410.937 186.169L414.866 182.239L418.795 186.17ZM435.133 169.83L431.201 173.763L427.269 169.829L431.201 165.896L435.133 169.83ZM467.82 169.83L463.888 173.762L459.955 169.83L463.887 165.897L467.82 169.83ZM402.463 169.83L398.532 173.762L394.599 169.83L398.531 165.897L402.463 169.83ZM451.482 153.49L447.544 157.429L443.607 153.489L447.544 149.552L451.482 153.49ZM418.795 153.49L414.866 157.42L410.937 153.489L414.866 149.56L418.795 153.49ZM402.462 137.151L398.532 141.083L394.6 137.15L398.532 133.219L402.462 137.151ZM467.82 137.15L463.888 141.082L459.956 137.151L463.888 133.219L467.82 137.15ZM435.132 137.151L431.201 141.082L427.27 137.151L431.2 133.22L435.132 137.151ZM451.483 120.811L447.544 124.751L443.606 120.812L447.544 116.874L451.483 120.811ZM484.152 120.812L480.222 124.742L476.293 120.811L480.222 116.882L484.152 120.812ZM418.795 120.812L414.866 124.742L410.937 120.811L414.866 116.882L418.795 120.812ZM471.687 75.664C472.51 76.4875 473.458 77.1105 474.468 77.5381C474.896 78.5535 475.523 79.5048 476.35 80.332L484.152 88.1338L476.35 95.9365C475.524 96.7623 474.9 97.713 474.472 98.7265C473.591 99.0987 472.759 99.6209 472.014 100.294L471.687 100.604L463.888 108.405L456.087 100.604L455.759 100.294C455.009 99.6162 454.169 99.0914 453.282 98.7187C452.854 97.7081 452.23 96.7603 451.407 95.9365L443.606 88.1338L451.407 80.332C452.231 79.5076 452.855 78.5594 453.283 77.5478C454.301 77.12 455.258 76.4938 456.087 75.664L463.887 67.8633L471.687 75.664ZM435.132 104.473L431.2 108.405L427.269 104.473L431.201 100.54L435.132 104.473ZM500.49 104.473L496.558 108.404L492.625 104.473L496.557 100.541L500.49 104.473ZM402.463 104.473L398.532 108.404L394.599 104.473L398.531 100.541L402.463 104.473ZM516.822 88.1338L512.892 92.0634L508.963 88.1328L512.892 84.2031L516.822 88.1338ZM418.795 88.1338L414.866 92.0634L410.937 88.1328L414.866 84.2031L418.795 88.1338ZM500.489 71.7949L496.558 75.7265L492.626 71.7939L496.558 67.8623L500.489 71.7949ZM402.462 71.7949L398.532 75.7265L394.6 71.7939L398.532 67.8623L402.462 71.7949ZM435.132 71.7949L431.201 75.7256L427.27 71.7949L431.2 67.8633L435.132 71.7949ZM451.482 55.456L447.544 59.3945L443.607 55.455L447.544 51.5175L451.482 55.456ZM484.152 55.456L480.222 59.3857L476.293 55.455L480.222 51.5254L484.152 55.456ZM418.795 55.456L414.866 59.3857L410.937 55.455L414.866 51.5254L418.795 55.456ZM467.82 39.1162L463.888 43.0488L459.956 39.1162L463.888 35.1836L467.82 39.1162ZM435.133 39.1162L431.201 43.0488L427.27 39.1162L431.201 35.1836L435.133 39.1162ZM451.483 22.7763L447.544 26.7158L443.606 22.7773L447.544 18.8388L451.483 22.7763Z" fill="#BE4D56"/>
</svg>
