<svg width="40" height="45" viewBox="0 0 40 45" fill="none" xmlns="http://www.w3.org/2000/svg">
<path d="M30.6794 0.183136C30.4655 -0.0304392 30.1352 -0.0572708 29.8923 0.103058L29.7937 0.183136L29.7136 0.280792C29.553 0.52371 29.58 0.854799 29.7937 1.06888L30.366 1.64114L29.7937 2.21341C29.7336 2.27349 29.6895 2.34357 29.6589 2.41751C29.6229 2.43246 29.5877 2.45024 29.5544 2.4722L29.4558 2.55228L28.8845 3.12357L28.3113 2.55228C28.0974 2.33858 27.7671 2.3119 27.5242 2.4722L27.4255 2.55228L27.3455 2.64993C27.1848 2.89291 27.2117 3.22394 27.4255 3.43802L27.9978 4.01028L27.4255 4.58255C27.2602 4.74793 27.21 4.98245 27.2683 5.1929C27.2082 5.40436 27.2592 5.6407 27.4255 5.80716L27.9978 6.37943L27.4255 6.95169C27.2601 7.11709 27.2099 7.35157 27.2683 7.56204C27.2082 7.77349 27.2592 8.00986 27.4255 8.1763L27.9978 8.74857L27.4255 9.32083C27.2604 9.48601 27.2103 9.71995 27.2683 9.93021C27.2078 10.1419 27.259 10.3788 27.4255 10.5454L27.9978 11.1177L27.4255 11.69C27.2603 11.8552 27.2103 12.0891 27.2683 12.2993C27.2079 12.511 27.259 12.7479 27.4255 12.9146L27.9978 13.4868L27.4255 14.0591C27.2604 14.2243 27.2102 14.4582 27.2683 14.6685C27.2079 14.8802 27.259 15.1171 27.4255 15.2837L27.9978 15.856L27.4255 16.4283C27.2604 16.5935 27.2102 16.8273 27.2683 17.0376C27.2079 17.2493 27.259 17.4863 27.4255 17.6529L27.9978 18.2251L27.4255 18.7974C27.3655 18.8574 27.3203 18.9266 27.2898 19.0005C27.2537 19.0155 27.2186 19.0342 27.1853 19.0562L27.0867 19.1363L25.3308 20.8921L24.7585 20.3208C24.5933 20.1555 24.3584 20.1025 24.1482 20.1607C23.9759 20.1119 23.7867 20.1389 23.6326 20.2408L23.5339 20.3208L22.9626 20.8921L22.3894 20.3208C22.1755 20.1069 21.8453 20.0803 21.6023 20.2408L21.5037 20.3208L21.4236 20.4185C21.263 20.6616 21.2896 20.9925 21.5037 21.2066L22.0759 21.7788L21.5037 22.3511C21.4436 22.4112 21.3985 22.4803 21.3679 22.5542C21.3318 22.5692 21.2968 22.5878 21.2634 22.6099L21.1648 22.69L20.5925 23.2622L20.0203 22.69C19.8063 22.476 19.4762 22.4495 19.2332 22.6099L19.1345 22.69L19.0544 22.7876C18.8938 23.0307 18.9205 23.3617 19.1345 23.5757L19.7068 24.148L19.1345 24.7202C19.0742 24.7805 19.0293 24.8501 18.9988 24.9243C18.9629 24.9393 18.9274 24.9572 18.8943 24.979L18.7957 25.0591L18.2234 25.6314L17.6511 25.0591C17.4372 24.8452 17.1071 24.8186 16.864 24.979L16.7654 25.0591L16.6853 25.1568C16.5249 25.3998 16.5515 25.7309 16.7654 25.9449L17.3376 26.5171L16.7654 27.0894C16.7055 27.1494 16.6611 27.2188 16.6306 27.2925C16.5944 27.3075 16.5586 27.3261 16.5251 27.3482L16.4265 27.4283L15.8542 28.0005L15.282 27.4283C15.068 27.2143 14.7379 27.1877 14.4949 27.3482L14.3962 27.4283L14.3162 27.5259C14.1558 27.7689 14.1823 28.1001 14.3962 28.314L14.9685 28.8863L14.3962 29.4585C14.3364 29.5185 14.2919 29.5879 14.2615 29.6617C14.2255 29.6766 14.1902 29.6944 14.157 29.7163L14.0583 29.7964L13.4871 30.3677L12.9138 29.7964C12.6999 29.5827 12.3697 29.5561 12.1267 29.7163L12.0281 29.7964L11.948 29.8941C11.7873 30.1371 11.8142 30.4681 12.0281 30.6822L12.6003 31.2544L12.0281 31.8267C11.9679 31.8868 11.9229 31.9568 11.8923 32.0308C11.8563 32.0457 11.8211 32.0635 11.7878 32.0855L11.6892 32.1656L11.1169 32.7378L10.5447 32.1656C10.3307 31.9518 10.0005 31.9251 9.75757 32.0855L9.65894 32.1656L9.57886 32.2632C9.4182 32.5062 9.4451 32.8372 9.65894 33.0513L10.2312 33.6236L9.65894 34.1958C9.59843 34.2563 9.55277 34.3264 9.52222 34.4009C9.48691 34.4157 9.45234 34.4331 9.41968 34.4546L9.32104 34.5347L8.74976 35.106L8.17651 34.5347C7.96266 34.3208 7.63242 34.2944 7.3894 34.4546L7.29077 34.5347L7.21069 34.6324C7.04998 34.8754 7.07672 35.2064 7.29077 35.4204L7.86304 35.9927L7.29077 36.565C7.23084 36.6249 7.18558 36.6943 7.15503 36.7681C7.11888 36.7831 7.08393 36.8017 7.05054 36.8238L6.9519 36.9038L6.37964 37.4761L5.80737 36.9038C5.59351 36.69 5.26328 36.6635 5.02026 36.8238L4.92163 36.9038L4.84155 37.0015C4.68084 37.2446 4.70758 37.5755 4.92163 37.7896L5.4939 38.3618L4.92163 38.9341C4.86168 38.9941 4.81644 39.0635 4.78589 39.1372C4.74975 39.1522 4.71478 39.1709 4.6814 39.1929L4.58276 39.273L4.0105 39.8452L3.43823 39.273C3.22431 39.059 2.89416 39.0325 2.65112 39.1929L2.55249 39.273L2.47241 39.3706C2.3117 39.6137 2.33844 39.9447 2.55249 40.1587L3.12476 40.731L2.55249 41.3033C2.49249 41.3633 2.4473 41.4325 2.41675 41.5064C2.38061 41.5214 2.34564 41.54 2.31226 41.562L2.21362 41.6421L1.64136 42.2144L1.06909 41.6421C0.855151 41.4282 0.525025 41.4016 0.281982 41.562L0.18335 41.6421L0.103271 41.7398C-0.0574346 41.9829 -0.0306986 42.3138 0.18335 42.5279L0.755615 43.1001L0.18335 43.6724C-0.0611424 43.9169 -0.0610959 44.3136 0.18335 44.5581C0.427888 44.8026 0.824577 44.8027 1.06909 44.5581L1.64136 43.9859L2.21362 44.5581C2.3796 44.7241 2.61492 44.7747 2.82593 44.7154C3.03692 44.7747 3.27227 44.7241 3.43823 44.5581L4.0105 43.9859L4.58276 44.5581C4.82728 44.8026 5.22399 44.8026 5.46851 44.5581C5.713 44.3136 5.71296 43.9169 5.46851 43.6724L4.89624 43.1001L5.46851 42.5279C5.52874 42.4676 5.57369 42.3979 5.60425 42.3238C5.67787 42.2932 5.74752 42.2489 5.80737 42.189L6.37964 41.6167L6.9519 42.189C7.01242 42.2495 7.08245 42.2942 7.15698 42.3247C7.18754 42.3983 7.231 42.4681 7.29077 42.5279L7.86304 43.1001L7.29077 43.6724C7.04628 43.9169 7.04633 44.3136 7.29077 44.5581C7.53532 44.8025 7.93204 44.8026 8.17651 44.5581L8.74878 43.9859L9.32104 44.5581C9.48708 44.724 9.72234 44.7748 9.93335 44.7154C10.1441 44.7744 10.3789 44.7238 10.5447 44.5581L11.1169 43.9859L11.6892 44.5581C11.9337 44.8026 12.3304 44.8025 12.575 44.5581C12.8195 44.3136 12.8195 43.9169 12.575 43.6724L12.0027 43.1001L12.575 42.5279C12.6352 42.4676 12.6801 42.3979 12.7107 42.3238C12.7844 42.2932 12.8539 42.2489 12.9138 42.189L13.4861 41.6167L14.0583 42.189C14.3029 42.4335 14.6996 42.4335 14.9441 42.189C15.1885 41.9445 15.1886 41.5478 14.9441 41.3033L14.3718 40.731L14.9441 40.1587C15.0044 40.0984 15.0503 40.0289 15.0808 39.9546C15.154 39.9241 15.2225 39.8794 15.282 39.8199L15.8542 39.2476L16.4265 39.8199C16.671 40.0643 17.0677 40.0642 17.3123 39.8199C17.5568 39.5753 17.5568 39.1786 17.3123 38.9341L16.74 38.3618L17.3123 37.7896C17.3725 37.7293 17.4174 37.6596 17.448 37.5855C17.5218 37.5549 17.5911 37.5107 17.6511 37.4507L18.2234 36.8784L18.7957 37.4507C19.0401 37.6952 19.4369 37.6951 19.6814 37.4507C19.9259 37.2062 19.9259 36.8095 19.6814 36.565L19.1091 35.9927L19.6814 35.4204C19.7417 35.3602 19.7866 35.2905 19.8171 35.2163C19.8907 35.1858 19.9604 35.1414 20.0203 35.0816L20.5925 34.5093L21.1648 35.0816C21.4093 35.3261 21.806 35.3261 22.0505 35.0816C22.2947 34.837 22.2949 34.4403 22.0505 34.1958L21.4783 33.6236L22.0505 33.0513C22.1104 32.9913 22.1548 32.9219 22.1853 32.8482C22.2594 32.8176 22.3292 32.7726 22.3894 32.7124L22.9617 32.1402L23.5339 32.7124C23.5944 32.7729 23.6645 32.8176 23.739 32.8482C23.7696 32.9218 23.8129 32.9914 23.8728 33.0513L24.4451 33.6236L23.8728 34.1958C23.7079 34.3608 23.658 34.5942 23.7156 34.8042C23.6546 35.0162 23.7059 35.2535 23.8728 35.4204L24.4451 35.9927L23.8728 36.565C23.7079 36.7299 23.6571 36.9634 23.7146 37.1734C23.6537 37.3853 23.7059 37.6227 23.8728 37.7896L24.4451 38.3618L23.8728 38.9341C23.7079 39.099 23.657 39.3325 23.7146 39.5425C23.6538 39.7544 23.706 39.9919 23.8728 40.1587L24.4451 40.731L23.8728 41.3033C23.8128 41.3632 23.7676 41.4326 23.7371 41.5064C23.7009 41.5214 23.666 41.54 23.6326 41.562L23.5339 41.6421L22.9617 42.2144L22.3894 41.6421C22.1755 41.4282 21.8453 41.4016 21.6023 41.562L21.5037 41.6421L21.4236 41.7398C21.2629 41.9829 21.2896 42.3138 21.5037 42.5279L22.0759 43.1001L21.5037 43.6724C21.2592 43.9169 21.2592 44.3136 21.5037 44.5581C21.7482 44.8026 22.1449 44.8027 22.3894 44.5581L22.9617 43.9859L23.5339 44.5581C23.7785 44.8026 24.1752 44.8026 24.4197 44.5581C24.6641 44.3136 24.6641 43.9169 24.4197 43.6724L23.8474 43.1001L24.4197 42.5279C24.48 42.4675 24.5258 42.398 24.5564 42.3238C24.6297 42.2932 24.6989 42.2486 24.7585 42.189L25.3308 41.6167L25.9031 42.189C25.9636 42.2495 26.0336 42.2942 26.1082 42.3247C26.1387 42.3982 26.1813 42.4681 26.241 42.5279L26.8132 43.1001L26.241 43.6724C25.9967 43.9169 25.9968 44.3137 26.241 44.5581C26.4854 44.8026 26.8822 44.8025 27.1267 44.5581L27.699 43.9859L28.2712 44.5581C28.5157 44.8026 28.9124 44.8024 29.157 44.5581C29.4015 44.3136 29.4015 43.9169 29.157 43.6724L28.5847 43.1001L29.157 42.5279C29.2172 42.4677 29.2622 42.3979 29.2927 42.3238C29.3664 42.2932 29.436 42.2489 29.4958 42.189L30.0681 41.6167L30.6404 42.189C30.7012 42.2498 30.7715 42.2952 30.8464 42.3257C30.877 42.3989 30.9198 42.4684 30.9792 42.5279L31.5515 43.1001L30.9792 43.6724C30.7349 43.9169 30.7349 44.3136 30.9792 44.5581C31.2238 44.8027 31.6204 44.8026 31.865 44.5581L32.4373 43.9859L33.0095 44.5581C33.254 44.8026 33.6507 44.8025 33.8953 44.5581C34.1398 44.3136 34.1398 43.9169 33.8953 43.6724L33.323 43.1001L33.8953 42.5279C34.1398 42.2833 34.1398 41.8867 33.8953 41.6421C33.6813 41.4282 33.3512 41.4015 33.1082 41.562L33.0095 41.6421L32.4373 42.2144L31.865 41.6421C31.8056 41.5827 31.7368 41.5388 31.6638 41.5083C31.6333 41.4336 31.5868 41.3639 31.5261 41.3033L30.9539 40.731L31.5261 40.1587C31.692 39.9927 31.7427 39.7574 31.6833 39.5464C31.7426 39.3354 31.692 39.1 31.5261 38.9341L30.9539 38.3618L31.5261 37.7896C31.692 37.6236 31.7427 37.3883 31.6833 37.1773C31.7426 36.9663 31.692 36.7309 31.5261 36.565L30.9539 35.9927L31.5261 35.4204C31.692 35.2544 31.7427 35.0191 31.6833 34.8081C31.7425 34.5972 31.692 34.3617 31.5261 34.1958L30.9539 33.6236L31.5261 33.0513C31.5863 32.991 31.6313 32.9214 31.6619 32.8472C31.7356 32.8166 31.8051 32.7724 31.865 32.7124L32.4373 32.1402L33.0095 32.7124C33.254 32.957 33.6507 32.9569 33.8953 32.7124C34.1396 32.4679 34.1397 32.0712 33.8953 31.8267L33.323 31.2544L33.8953 30.6822C33.9556 30.6218 34.0014 30.5524 34.032 30.4781C34.105 30.4476 34.1737 30.4036 34.2332 30.3443L34.8064 29.771L35.3777 30.3443C35.6221 30.5886 36.0189 30.5883 36.2634 30.3443C36.5079 30.0998 36.5079 29.7031 36.2634 29.4585L35.6912 28.8863L37.1746 27.4029L37.7468 27.9751C37.9912 28.2195 38.388 28.2192 38.6326 27.9751C38.8771 27.7306 38.8771 27.3339 38.6326 27.0894L38.0603 26.5171L39.8171 24.7603C39.983 24.5944 40.0336 24.3589 39.9744 24.148C40.0338 23.9369 39.9831 23.7017 39.8171 23.5357L39.2449 22.9634L39.8171 22.3911C39.9831 22.2252 40.0336 21.9898 39.9744 21.7788C40.0338 21.5678 39.9831 21.3326 39.8171 21.1665L39.2449 20.5943L39.8171 20.022C40.0616 19.7775 40.0616 19.3808 39.8171 19.1363C39.6032 18.9223 39.2731 18.8956 39.03 19.0562L38.9314 19.1363L38.3591 19.7085L37.7869 19.1363C37.6219 18.9713 37.3884 18.9185 37.1785 18.9761C37.0058 18.9268 36.8154 18.9541 36.6609 19.0562L36.5623 19.1363L35.99 19.7085L35.6921 19.4087L36.2634 18.8374C36.5079 18.5929 36.5079 18.1962 36.2634 17.9517C36.0494 17.7378 35.7193 17.7111 35.4763 17.8716L35.3777 17.9517L34.8064 18.523L34.5076 18.2251L35.0798 17.6529C35.2458 17.4869 35.2963 17.2515 35.2371 17.0406C35.2964 16.8296 35.2457 16.5942 35.0798 16.4283L34.5076 15.856L35.0798 15.2837C35.2457 15.1178 35.2964 14.8824 35.2371 14.6714C35.2964 14.4604 35.2457 14.2251 35.0798 14.0591L34.5076 13.4868L35.0798 12.9146C35.2457 12.7486 35.2964 12.5133 35.2371 12.3023C35.2963 12.0913 35.2458 11.8559 35.0798 11.69L34.5076 11.1177L35.0798 10.5454C35.1402 10.4851 35.186 10.4156 35.2166 10.3413C35.2897 10.3108 35.3582 10.2661 35.4177 10.2066L35.99 9.63431L36.5623 10.2066C36.8068 10.4511 37.2035 10.451 37.448 10.2066C37.6925 9.96204 37.6925 9.56536 37.448 9.32083L36.8757 8.74857L37.448 8.1763C37.5083 8.11603 37.5532 8.0464 37.5837 7.9722C37.6575 7.94164 37.7269 7.89736 37.7869 7.83743L38.3591 7.26517L38.9314 7.83743C39.1759 8.08196 39.5726 8.08193 39.8171 7.83743C40.0616 7.59289 40.0616 7.19619 39.8171 6.95169L39.2449 6.37943L39.8171 5.80716C40.0616 5.56262 40.0616 5.16592 39.8171 4.92142C39.6032 4.70764 39.273 4.68091 39.03 4.84134L38.9314 4.92142L38.3591 5.49368L37.7869 4.92142C37.7272 4.86184 37.658 4.81812 37.5847 4.78763C37.5542 4.71319 37.5084 4.643 37.448 4.58255L36.8757 4.01028L37.448 3.43802C37.6925 3.19348 37.6925 2.7968 37.448 2.55228C37.234 2.33863 36.9038 2.31176 36.6609 2.4722L36.5623 2.55228L35.99 3.12454L35.4177 2.55228C35.3583 2.49294 35.2895 2.44895 35.2166 2.41849C35.186 2.34401 35.1403 2.27388 35.0798 2.21341L34.5076 1.64114L35.0798 1.06888C35.324 0.82432 35.3242 0.427568 35.0798 0.183136C34.8659 -0.0306044 34.5357 -0.0572055 34.2927 0.103058L34.1941 0.183136L33.6218 0.755402L33.0496 0.183136C32.8842 0.0178995 32.6495 -0.0343682 32.4392 0.0239563C32.2667 -0.025056 32.0769 0.00113676 31.9226 0.103058L31.824 0.183136L31.2517 0.755402L30.6794 0.183136ZM3.12476 43.1001L2.82593 43.399L2.5271 43.1001L2.82593 42.8013L3.12476 43.1001ZM10.2312 43.1001L9.93335 43.398L9.6355 43.0992L9.93335 42.8013L10.2312 43.1001ZM28.2712 32.7124C28.3313 32.7725 28.4015 32.8166 28.4753 32.8472C28.5059 32.9213 28.55 32.9911 28.6101 33.0513L29.1824 33.6236L28.6101 34.1958C28.4452 34.3608 28.3953 34.5942 28.4529 34.8042C28.3919 35.0162 28.4432 35.2535 28.6101 35.4204L29.1824 35.9927L28.6101 36.565C28.4452 36.7299 28.3944 36.9634 28.4519 37.1734C28.3911 37.3853 28.4433 37.6227 28.6101 37.7896L29.1824 38.3618L28.6101 38.9341C28.4452 39.099 28.3944 39.3325 28.4519 39.5425C28.3911 39.7544 28.4433 39.9919 28.6101 40.1587L29.1824 40.731L28.6101 41.3033C28.5501 41.3633 28.5049 41.4326 28.4744 41.5064C28.4383 41.5213 28.4031 41.5401 28.3699 41.562L28.2712 41.6421L27.699 42.2144L27.1267 41.6421C27.067 41.5825 26.9979 41.5388 26.9246 41.5083C26.894 41.4339 26.8492 41.3637 26.7888 41.3033L26.2166 40.731L26.7888 40.1587C26.9546 39.9928 27.0053 39.7573 26.946 39.5464C27.0053 39.3355 26.9546 39.1 26.7888 38.9341L26.2166 38.3618L26.7888 37.7896C26.9546 37.6236 27.0054 37.3882 26.946 37.1773C27.0052 36.9664 26.9547 36.7309 26.7888 36.565L26.2166 35.9927L26.7888 35.4204C26.9546 35.2544 27.0054 35.0191 26.946 34.8081C27.0052 34.5972 26.9547 34.3617 26.7888 34.1958L26.2166 33.6236L26.7888 33.0513C26.8489 32.9911 26.8931 32.9213 26.9236 32.8472C26.9974 32.8166 27.0667 32.7724 27.1267 32.7124L27.7 32.1392L28.2712 32.7124ZM11.4158 41.9156L11.1169 42.2144L10.8181 41.9156L11.1169 41.6167L11.4158 41.9156ZM4.30933 41.9156L4.0105 42.2144L3.71167 41.9156L4.0105 41.6167L4.30933 41.9156ZM9.32104 39.8199C9.38156 39.8804 9.45159 39.9251 9.52612 39.9556C9.55666 40.0291 9.59924 40.099 9.65894 40.1587L10.2312 40.731L9.65894 41.3033C9.59871 41.3635 9.55374 41.4332 9.52319 41.5074C9.48746 41.5222 9.45271 41.5402 9.41968 41.562L9.32104 41.6421L8.74976 42.2134L8.17651 41.6421C8.11719 41.5828 8.04819 41.5388 7.97534 41.5083C7.9448 41.4336 7.89826 41.3639 7.83765 41.3033L7.26538 40.731L7.83765 40.1587C7.89784 40.0985 7.94286 40.0288 7.97339 39.9546C8.04699 39.9241 8.11667 39.8797 8.17651 39.8199L8.74878 39.2476L9.32104 39.8199ZM12.6003 40.731L12.3015 41.0298L12.0027 40.731L12.3015 40.4322L12.6003 40.731ZM5.4939 40.731L5.19507 41.0298L4.89624 40.731L5.19507 40.4322L5.4939 40.731ZM30.3669 39.5464L30.0681 39.8452L29.7693 39.5464L30.0681 39.2476L30.3669 39.5464ZM25.6296 39.5464L25.3308 39.8452L25.032 39.5464L25.3308 39.2476L25.6296 39.5464ZM13.7849 39.5464L13.4861 39.8452L13.1873 39.5464L13.4861 39.2476L13.7849 39.5464ZM11.6892 37.4507C11.7496 37.5111 11.8199 37.5559 11.8943 37.5865C11.9248 37.6601 11.9682 37.7297 12.0281 37.7896L12.6003 38.3618L12.0281 38.9341C11.9681 38.9941 11.9229 39.0634 11.8923 39.1372C11.8562 39.1522 11.8212 39.1709 11.7878 39.1929L11.6892 39.273L11.1169 39.8452L10.5447 39.273C10.4855 39.2138 10.4171 39.1697 10.3445 39.1392C10.3139 39.0645 10.2674 38.9948 10.2068 38.9341L9.63452 38.3618L10.2068 37.7896C10.2671 37.7292 10.313 37.6598 10.3435 37.5855C10.4166 37.5549 10.4852 37.5102 10.5447 37.4507L11.1169 36.8784L11.6892 37.4507ZM6.67847 39.5464L6.37964 39.8452L6.08081 39.5464L6.37964 39.2476L6.67847 39.5464ZM7.86304 38.3618L7.56421 38.6607L7.26538 38.3618L7.56421 38.063L7.86304 38.3618ZM14.9685 38.3618L14.6707 38.6597L14.3728 38.3609L14.6707 38.063L14.9685 38.3618ZM30.3669 37.1773L30.0681 37.4761L29.7693 37.1773L30.0681 36.8784L30.3669 37.1773ZM25.6296 37.1773L25.3308 37.4761L25.032 37.1773L25.3308 36.8784L25.6296 37.1773ZM16.1531 37.1773L15.8542 37.4761L15.5554 37.1773L15.8542 36.8784L16.1531 37.1773ZM9.04761 37.1773L8.74878 37.4761L8.44995 37.1773L8.74878 36.8784L9.04761 37.1773ZM14.0583 35.0816C14.1188 35.142 14.189 35.1868 14.2634 35.2173C14.2939 35.2908 14.3366 35.3607 14.3962 35.4204L14.9685 35.9927L14.3962 36.565C14.3364 36.6249 14.292 36.6944 14.2615 36.7681C14.2253 36.7831 14.1904 36.8017 14.157 36.8238L14.0583 36.9038L13.4871 37.4751L12.9138 36.9038C12.8544 36.8445 12.7856 36.8006 12.7126 36.7701C12.6821 36.6954 12.6355 36.6256 12.575 36.565L12.0027 35.9927L12.575 35.4204C12.6352 35.3602 12.6801 35.2905 12.7107 35.2163C12.7844 35.1858 12.8539 35.1415 12.9138 35.0816L13.4861 34.5093L14.0583 35.0816ZM17.3376 35.9927L17.0388 36.2915L16.74 35.9927L17.0388 35.6939L17.3376 35.9927ZM10.2312 35.9927L9.93335 36.2906L9.6355 35.9917L9.93335 35.6939L10.2312 35.9927ZM30.3669 34.8081L30.0681 35.107L29.7693 34.8081L30.0681 34.5093L30.3669 34.8081ZM25.6296 34.8081L25.3308 35.107L25.032 34.8081L25.3308 34.5093L25.6296 34.8081ZM18.5222 34.8081L18.2234 35.107L17.9246 34.8081L18.2234 34.5093L18.5222 34.8081ZM16.4265 32.7124C16.4871 32.773 16.5579 32.8176 16.6326 32.8482C16.6631 32.9217 16.7057 32.9915 16.7654 33.0513L17.3376 33.6236L16.7654 34.1958C16.7053 34.2559 16.6612 34.326 16.6306 34.3999C16.5944 34.4149 16.5586 34.4325 16.5251 34.4546L16.4265 34.5347L15.8542 35.107L15.282 34.5347C15.2228 34.4756 15.1545 34.4314 15.0818 34.4009C15.0512 34.3263 15.0047 34.2564 14.9441 34.1958L14.3718 33.6236L14.9441 33.0513C15.0044 32.9909 15.0503 32.9215 15.0808 32.8472C15.154 32.8167 15.2225 32.772 15.282 32.7124L15.8542 32.1402L16.4265 32.7124ZM11.4158 34.8081L11.1169 35.107L10.8181 34.8081L11.1169 34.5093L11.4158 34.8081ZM19.7068 33.6236L19.408 33.9224L19.1091 33.6236L19.408 33.3247L19.7068 33.6236ZM12.6003 33.6236L12.3015 33.9224L12.0027 33.6236L12.3015 33.3247L12.6003 33.6236ZM30.3669 32.439L30.0681 32.7378L29.7693 32.439L30.0681 32.1402L30.3669 32.439ZM25.6296 32.439L25.3308 32.7378L25.032 32.439L25.3308 32.1402L25.6296 32.439ZM20.8914 32.439L20.5925 32.7378L20.2937 32.439L20.5925 32.1402L20.8914 32.439ZM18.7957 30.3443C18.8557 30.4043 18.9259 30.4475 18.9998 30.4781C19.0303 30.5522 19.0743 30.622 19.1345 30.6822L19.7068 31.2544L19.1345 31.8267C19.0742 31.887 19.0293 31.9574 18.9988 32.0318C18.963 32.0467 18.9274 32.0636 18.8943 32.0855L18.7957 32.1656L18.2234 32.7378L17.6511 32.1656C17.5915 32.106 17.5223 32.0622 17.449 32.0318C17.4184 31.9573 17.3727 31.8871 17.3123 31.8267L16.741 31.2534L17.3123 30.6822C17.3726 30.6219 17.4174 30.5523 17.448 30.4781C17.5216 30.4476 17.5913 30.404 17.6511 30.3443L18.2234 29.772L18.7957 30.3443ZM13.7849 32.439L13.4861 32.7378L13.1873 32.439L13.4861 32.1402L13.7849 32.439ZM31.5515 31.2544L31.2527 31.5533L30.9539 31.2544L31.2527 30.9556L31.5515 31.2544ZM29.1824 31.2544L28.8835 31.5533L28.5847 31.2544L28.8835 30.9556L29.1824 31.2544ZM22.0759 31.2544L21.7771 31.5533L21.4783 31.2544L21.7771 30.9556L22.0759 31.2544ZM26.8142 31.2534L26.5154 31.5523L26.2166 31.2544L26.5154 30.9556L26.8142 31.2534ZM24.4451 31.2544L24.1472 31.5523L23.8484 31.2534L24.1462 30.9556L24.4451 31.2544ZM14.9685 31.2544L14.6707 31.5523L14.3728 31.2534L14.6707 30.9556L14.9685 31.2544ZM32.7361 30.0699L32.4373 30.3687L32.1394 30.0699L32.4382 29.771L32.7361 30.0699ZM31.5525 28.8853L30.9792 29.4585C30.9193 29.5186 30.874 29.5877 30.8435 29.6617C30.8075 29.6766 30.7723 29.6944 30.739 29.7163L30.6404 29.7964L30.0681 30.3687L29.4958 29.7964C29.4362 29.7368 29.3669 29.6931 29.2937 29.6626C29.2631 29.5882 29.2174 29.5189 29.157 29.4585L28.5847 28.8863L30.0691 27.4019L31.5525 28.8853ZM27.9978 30.0699L27.699 30.3687L27.4011 30.0699L27.7 29.771L27.9978 30.0699ZM25.9031 27.9751C25.9635 28.0354 26.0338 28.0794 26.1082 28.1099C26.1387 28.1836 26.1811 28.2541 26.241 28.314L26.8142 28.8853L26.241 29.4585C26.1811 29.5185 26.1367 29.5879 26.1062 29.6617C26.0702 29.6766 26.035 29.6944 26.0017 29.7163L25.9031 29.7964L25.3308 30.3687L24.7585 29.7964C24.699 29.7368 24.6296 29.6932 24.5564 29.6626C24.5259 29.5883 24.48 29.5189 24.4197 29.4585L23.8474 28.8863L24.4197 28.314C24.4801 28.2535 24.5258 28.1834 24.5564 28.1089C24.6296 28.0784 24.699 28.0347 24.7585 27.9751L25.3308 27.4029L25.9031 27.9751ZM21.1648 27.9751C21.2252 28.0354 21.2955 28.0794 21.3699 28.1099C21.4004 28.1837 21.4437 28.2541 21.5037 28.314L22.0759 28.8863L21.5037 29.4585C21.4436 29.5186 21.3984 29.5877 21.3679 29.6617C21.3319 29.6766 21.2967 29.6944 21.2634 29.7163L21.1648 29.7964L20.5925 30.3687L20.0203 29.7964C19.9607 29.7368 19.8913 29.6931 19.8181 29.6626C19.7876 29.5882 19.7418 29.5189 19.6814 29.4585L19.1091 28.8863L19.6814 28.314C19.7417 28.2537 19.7866 28.1832 19.8171 28.1089C19.8907 28.0784 19.9605 28.0349 20.0203 27.9751L20.5925 27.4029L21.1648 27.9751ZM23.2605 30.0699L22.9626 30.3677L22.6638 30.0699L22.9617 29.772L23.2605 30.0699ZM16.1531 30.0699L15.8552 30.3677L15.5564 30.0699L15.8542 29.772L16.1531 30.0699ZM17.3376 28.8863L17.0388 29.1851L16.74 28.8863L17.0388 28.5874L17.3376 28.8863ZM33.9207 28.8853L33.6218 29.1841L33.324 28.8853L33.6218 28.5874L33.9207 28.8853ZM35.1042 27.7017L34.8054 28.0005L34.5066 27.7017L34.8054 27.4029L35.1042 27.7017ZM29.1833 26.5161L27.699 28.0005L27.1267 27.4283C27.0669 27.3685 26.998 27.324 26.9246 27.2935C26.8941 27.2193 26.849 27.1497 26.7888 27.0894L26.2166 26.5171L26.7888 25.9449C26.8489 25.8848 26.893 25.8147 26.9236 25.7408C26.997 25.7103 27.066 25.6656 27.1257 25.606L27.699 25.0327L29.1833 26.5161ZM23.2605 27.7017L22.9617 28.0005L22.6628 27.7017L22.9617 27.4029L23.2605 27.7017ZM18.5222 27.7017L18.2234 28.0005L17.9246 27.7017L18.2234 27.4029L18.5222 27.7017ZM33.9207 26.5171L33.3484 27.0894C33.2884 27.1494 33.2432 27.2186 33.2126 27.2925C33.1766 27.3075 33.1415 27.3262 33.1082 27.3482L33.0095 27.4283L32.4382 27.9995L30.9548 26.5152L32.4373 25.0327L33.9207 26.5171ZM36.2888 26.5171L35.99 26.8159L35.6912 26.5171L35.99 26.2183L36.2888 26.5171ZM24.4451 26.5171L24.1462 26.8159L23.8474 26.5171L24.1462 26.2183L24.4451 26.5171ZM22.0759 26.5171L21.7771 26.8159L21.4783 26.5171L21.7771 26.2183L22.0759 26.5171ZM19.7068 26.5171L19.408 26.8159L19.1091 26.5171L19.408 26.2183L19.7068 26.5171ZM37.4734 25.3326L37.1746 25.6314L36.8757 25.3326L37.1746 25.0337L37.4734 25.3326ZM36.2898 24.148L34.8064 25.6314L33.323 24.148L34.8074 22.6636L36.2898 24.148ZM25.6296 25.3326L25.3308 25.6314L25.032 25.3326L25.3308 25.0337L25.6296 25.3326ZM23.2605 25.3326L22.9617 25.6314L22.6628 25.3326L22.9617 25.0337L23.2605 25.3326ZM20.8914 25.3326L20.5925 25.6314L20.2937 25.3326L20.5925 25.0337L20.8914 25.3326ZM31.5505 24.148L30.0691 25.6294L28.5847 24.147L30.0671 22.6646L31.5505 24.148ZM38.658 24.148L38.3591 24.4468L38.0603 24.148L38.3591 23.8492L38.658 24.148ZM24.4451 24.148L24.1462 24.4468L23.8474 24.148L24.1462 23.8492L24.4451 24.148ZM22.0759 24.148L21.7771 24.4468L21.4783 24.148L21.7771 23.8492L22.0759 24.148ZM26.8142 24.147L26.5154 24.4458L26.2175 24.147L26.5164 23.8482L26.8142 24.147ZM37.4744 22.9634L37.1755 23.2622L36.8767 22.9624L37.1755 22.6636L37.4744 22.9634ZM33.9216 21.7779L32.4373 23.2622L30.9529 21.7788L32.4373 20.2945L33.9216 21.7779ZM23.2605 22.9634L22.9617 23.2622L22.6628 22.9634L22.9617 22.6646L23.2605 22.9634ZM27.9968 22.9634L27.699 23.2613L27.4011 22.9624L27.699 22.6646L27.9968 22.9634ZM25.6306 22.9624L25.3318 23.2613L25.032 22.9624L25.3308 22.6636L25.6306 22.9624ZM38.6589 21.7788L38.3601 22.0777L38.0603 21.7788L38.3591 21.48L38.6589 21.7788ZM36.2888 21.7788L35.991 22.0767L35.6912 21.7788L35.99 21.48L36.2888 21.7788ZM29.1824 21.7779L28.8835 22.0767L28.5847 21.7788L28.8845 21.479L29.1824 21.7779ZM26.8142 21.7779L26.5154 22.0767L26.2166 21.7779L26.5144 21.48L26.8142 21.7779ZM24.4451 21.7779L24.1462 22.0767L23.8484 21.7779L24.1472 21.479L24.4451 21.7779ZM37.4734 20.5943L37.1746 20.8931L36.8757 20.5943L37.1746 20.2954L37.4734 20.5943ZM35.1042 20.5943L34.8054 20.8931L34.5076 20.5933L34.8054 20.2954L35.1042 20.5943ZM27.9988 20.5933L27.699 20.8931L27.4001 20.5943L27.7 20.2945L27.9988 20.5933ZM30.3669 20.5933L30.0681 20.8921L29.7703 20.5933L30.0691 20.2945L30.3669 20.5933ZM33.9207 19.4087L33.6218 19.7076L33.323 19.4097L33.6218 19.1109L33.9207 19.4087ZM31.5515 19.4097L31.2527 19.7076L30.9539 19.4087L31.2517 19.1109L31.5515 19.4097ZM29.1833 19.4087L28.8845 19.7076L28.5847 19.4097L28.8845 19.1099L29.1833 19.4087ZM32.7361 18.2251L32.4373 18.524L32.1384 18.2242L32.4373 17.9253L32.7361 18.2251ZM30.366 18.2251L30.0681 18.523L29.7703 18.2242L30.0681 17.9263L30.366 18.2251ZM33.9207 17.0406L33.6218 17.3394L33.323 17.0406L33.6218 16.7417L33.9207 17.0406ZM29.1824 17.0406L28.8835 17.3394L28.5847 17.0406L28.8835 16.7417L29.1824 17.0406ZM31.5505 17.0406L31.2527 17.3384L30.9529 17.0406L31.2517 16.7417L31.5505 17.0406ZM32.7361 15.856L32.4373 16.1548L32.1384 15.855L32.4373 15.5562L32.7361 15.856ZM30.366 15.856L30.0681 16.1538L29.7703 15.855L30.0681 15.5572L30.366 15.856ZM33.9207 14.6714L33.6218 14.9702L33.323 14.6714L33.6218 14.3726L33.9207 14.6714ZM31.5505 14.6714L31.2527 14.9693L30.9529 14.6714L31.2517 14.3726L31.5505 14.6714ZM29.1824 14.6714L28.8845 14.9693L28.5857 14.6704L28.8835 14.3726L29.1824 14.6714ZM32.7361 13.4868L32.4373 13.7857L32.1384 13.4859L32.4373 13.187L32.7361 13.4868ZM30.366 13.4868L30.0681 13.7847L29.7703 13.4859L30.0681 13.188L30.366 13.4868ZM33.9207 12.3023L33.6218 12.6011L33.323 12.3023L33.6218 12.0034L33.9207 12.3023ZM31.5505 12.3023L31.2527 12.6001L30.9539 12.3013L31.2517 12.0034L31.5505 12.3023ZM29.1824 12.3023L28.8845 12.6001L28.5847 12.3023L28.8835 12.0034L29.1824 12.3023ZM32.7361 11.1177L32.4373 11.4165L32.1384 11.1167L32.4373 10.8179L32.7361 11.1177ZM30.366 11.1177L30.0681 11.4156L29.7703 11.1167L30.0681 10.8189L30.366 11.1177ZM33.9216 9.93216L33.6218 10.232L33.323 9.93314L33.6228 9.63333L33.9216 9.93216ZM31.5505 9.93314L31.2527 10.231L30.9529 9.93314L31.2517 9.63431L31.5505 9.93314ZM29.1824 9.93314L28.8845 10.231L28.5857 9.93216L28.8835 9.63431L29.1824 9.93314ZM32.7371 8.74759L32.4373 9.04739L32.1375 8.74857L32.4373 8.44876L32.7371 8.74759ZM35.1042 8.74857L34.8064 9.04642L34.5085 8.74759L34.8064 8.44974L35.1042 8.74857ZM30.366 8.74857L30.0681 9.04642L29.7703 8.74759L30.0681 8.44974L30.366 8.74857ZM36.2888 7.564L35.99 7.86282L35.6912 7.564L35.99 7.26517L36.2888 7.564ZM31.5505 7.564L31.2517 7.86282L30.9529 7.564L31.2517 7.26517L31.5505 7.564ZM34.1941 5.46829C34.2546 5.52876 34.3247 5.57347 34.3992 5.60403C34.4297 5.67753 34.4723 5.7474 34.532 5.80716L35.1042 6.37943L34.532 6.95169C34.4719 7.0118 34.4278 7.08181 34.3972 7.15579C34.3612 7.17074 34.326 7.18852 34.2927 7.21048L34.1941 7.29056L33.6228 7.86185L33.0496 7.29056C32.9897 7.23073 32.92 7.18729 32.8464 7.15677C32.8159 7.0823 32.7702 7.01215 32.7097 6.95169L32.1375 6.37943L32.7097 5.80716C32.7698 5.7471 32.8149 5.67794 32.8455 5.60403C32.9195 5.57347 32.9894 5.52848 33.0496 5.46829L33.6218 4.89603L34.1941 5.46829ZM29.1824 7.564L28.8845 7.86185L28.5847 7.564L28.8835 7.26517L29.1824 7.564ZM37.4734 6.37943L37.1746 6.67825L36.8757 6.37943L37.1746 6.0806L37.4734 6.37943ZM30.366 6.37943L30.0681 6.67728L29.7703 6.37845L30.0681 6.0806L30.366 6.37943ZM36.2888 5.19485L35.99 5.49368L35.6912 5.19485L35.99 4.89603L36.2888 5.19485ZM31.5505 5.19485L31.2517 5.49368L30.9529 5.19485L31.2517 4.89603L31.5505 5.19485ZM29.1824 5.19485L28.8845 5.49271L28.5857 5.19388L28.8835 4.89603L29.1824 5.19485ZM32.7361 4.01028L32.4373 4.30911L32.1384 4.00931L32.4373 3.71048L32.7361 4.01028ZM35.1042 4.01028L34.8064 4.30814L34.5085 4.00931L34.8064 3.71146L35.1042 4.01028ZM30.366 4.01028L30.0681 4.30814L29.7703 4.00931L30.0681 3.71146L30.366 4.01028ZM33.9207 2.82571L33.6228 3.12357L33.324 2.82474L33.6228 2.52591L33.9207 2.82571ZM31.5505 2.82571L31.2527 3.12357L30.9539 2.82474L31.2517 2.52689L31.5505 2.82571ZM32.7371 1.64017L32.4373 1.93997L32.1375 1.64114L32.4373 1.34134L32.7371 1.64017Z" fill="#BE4D56"/>
</svg>
